<svg xmlns="http://www.w3.org/2000/svg" viewBox="0 0 16 20" x="0px" y="0px"><title>_</title><g><path d="M14.5,8.5a2.49161,2.49161,0,0,0-1.23456-2.144A6.00638,6.00638,0,0,0,7.5,2c-.16608,0-.32928.0116-.49194.0249A2.49285,2.49285,0,0,0,2.68512,4.435a5.95457,5.95457,0,0,0,0,7.13,2.49294,2.49294,0,0,0,4.32294,2.4101C7.17072,13.9884,7.33392,14,7.5,14a6.00452,6.00452,0,0,0,5.26947-3.13361A2.49443,2.49443,0,0,0,14.5,8.5ZM7.5,12c-.01764,0-.03387-.00494-.05145-.00519A2.50351,2.50351,0,0,0,5,10a2.47385,2.47385,0,0,0-.85651.16071,3.94933,3.94933,0,0,1,0-4.32141A2.47385,2.47385,0,0,0,5,6,2.50351,2.50351,0,0,0,7.44855,4.00519C7.46613,4.00494,7.48236,4,7.5,4a3.98906,3.98906,0,0,1,3.54736,2.19061,2.49324,2.49324,0,0,0-.48334,4.34979A3.97521,3.97521,0,0,1,7.5,12Z"/></g><text x="0" y="31" fill="#000000" font-size="5px" font-weight="bold" font-family="'Helvetica Neue', Helvetica, Arial-Unicode, Arial, Sans-serif">Created by pxLens</text><text x="0" y="36" fill="#000000" font-size="5px" font-weight="bold" font-family="'Helvetica Neue', Helvetica, Arial-Unicode, Arial, Sans-serif">from the Noun Project</text></svg>